<?xml version="1.0" encoding="utf-8"?>
<!-- Generator: Adobe Illustrator 16.0.3, SVG Export Plug-In . SVG Version: 6.00 Build 0)  -->
<!DOCTYPE svg PUBLIC "-//W3C//DTD SVG 1.1//EN" "http://www.w3.org/Graphics/SVG/1.1/DTD/svg11.dtd">
<svg version="1.1" id="圖層_1" xmlns="http://www.w3.org/2000/svg" xmlns:xlink="http://www.w3.org/1999/xlink" x="0px" y="0px"
	 width="50px" height="300px" viewBox="0 0 50 300" enable-background="new 0 0 50 300" xml:space="preserve">
<g>
	<rect fill="none" width="50" height="50"/>
</g>
<g>
	<g>
		<polygon fill="#FFFFFF" points="31.543,26.12 29.645,24.196 26.389,27.383 26.389,13.903 23.614,13.903 23.614,27.384 
			20.415,24.196 18.553,26.12 25.047,32.485 		"/>
		<polygon fill="#FFFFFF" points="34.711,30.548 34.711,33.323 15.292,33.323 15.292,30.548 12.517,30.548 12.517,36.097 
			37.484,36.097 37.484,30.548 		"/>
	</g>
</g>
<g>
	<rect y="50" fill="none" width="50" height="50"/>
</g>
<g>
	<g>
		<rect x="12.517" y="65.291" fill="#FFFFFF" width="8.323" height="6.473"/>
		<rect x="20.84" y="71.763" fill="#FFFFFF" width="8.322" height="6.474"/>
		<rect x="29.162" y="65.291" fill="#FFFFFF" width="8.322" height="6.473"/>
		<rect x="12.517" y="78.237" fill="#FFFFFF" width="8.323" height="6.473"/>
		<rect x="29.162" y="78.237" fill="#FFFFFF" width="8.322" height="6.473"/>
	</g>
</g>
<g>
	<rect y="100" fill="none" width="50" height="50"/>
</g>
<g>
	<g>
		<rect x="12.978" y="115.291" fill="#FFFFFF" width="4.624" height="3.698"/>
		<rect x="17.602" y="118.989" fill="#FFFFFF" width="4.624" height="4.624"/>
		<rect x="22.226" y="115.291" fill="#FFFFFF" width="4.624" height="3.698"/>
		<rect x="12.978" y="123.613" fill="#FFFFFF" width="4.624" height="3.699"/>
		<rect x="22.226" y="123.613" fill="#FFFFFF" width="4.624" height="3.699"/>
		<rect x="26.85" y="118.989" fill="#FFFFFF" width="5.549" height="4.624"/>
		<rect x="32.398" y="115.291" fill="#FFFFFF" width="4.623" height="3.698"/>
		<rect x="32.398" y="123.613" fill="#FFFFFF" width="4.623" height="3.699"/>
		<rect x="17.602" y="127.313" fill="#FFFFFF" width="4.624" height="3.697"/>
		<rect x="12.978" y="131.01" fill="#FFFFFF" width="4.624" height="3.699"/>
		<rect x="22.226" y="131.01" fill="#FFFFFF" width="4.624" height="3.699"/>
		<rect x="26.85" y="127.313" fill="#FFFFFF" width="5.549" height="3.697"/>
		<rect x="32.398" y="131.01" fill="#FFFFFF" width="4.623" height="3.699"/>
	</g>
</g>
<g>
	<rect y="150" fill="none" width="50" height="50"/>
</g>
<g>
	<g>
		<path fill="#FFFFFF" d="M25.671,165.385c-0.336,0.333-3.583,3.029-5.905,5.804h-5.114c-0.388,0-0.834,0.511-0.834,0.897v5.849
			c0,0.39,0.446,0.651,0.834,0.651h5.043c2.37,1.851,5.721,5.748,5.958,5.99c0.459,0.473,1.11-0.1,1.11-0.902
			c0-0.619,0-16.37,0-17.269C26.764,165.523,26.063,164.994,25.671,165.385z"/>
		<path fill="#FFFFFF" d="M31.027,174.926c0-1.332-0.564-2.411-2.414-2.411v4.825C30.463,177.34,31.027,176.261,31.027,174.926z"/>
		<path fill="#FFFFFF" d="M28.613,167.359v2.418c2.773,0,5.15,2.311,5.15,5.148c0,2.841-2.377,5.15-5.15,5.15v2.421
			c4.624,0,7.568-3.39,7.568-7.571C36.182,170.747,33.237,167.359,28.613,167.359z"/>
	</g>
</g>
<g>
	<rect y="200" fill="none" width="50" height="50"/>
</g>
<g>
	<g>
		<g>
			<path fill="#FFFFFF" d="M25.802,215.598c-0.338,0.333-3.455,3.189-5.777,5.964h-5.113c-0.388,0-1.094,0.189-1.094,0.577v5.848
				c0,0.389,0.706,0.049,1.094,0.049h5.043c2.368,2.774,5.592,6.049,5.829,6.291c0.457,0.471,0.98,0.201,0.98-0.602
				c0-0.619,0-16.369,0-17.268C26.764,215.574,26.191,215.207,25.802,215.598z"/>
		</g>
		<polygon fill="#FFFFFF" points="36.764,222.287 35.098,220.621 32.486,223.23 29.873,220.621 28.205,222.287 30.818,224.898 
			28.205,227.511 29.873,229.18 32.486,226.566 35.098,229.18 36.764,227.511 34.154,224.898 		"/>
	</g>
</g>
<g>
	<rect y="250" fill="none" width="50" height="50"/>
</g>
<g>
	<path fill="#FFFFFF" d="M31.463,265.245h-6.753v2.773h6.753c1.832,0,2.494,1.376,2.494,3.207v2.791
		c0,1.832-0.662,3.251-2.494,3.251H17.446l2.783-2.798l-1.923-1.869l-5.962,6.081l5.962,6.073l1.923-1.884l-2.784-2.83h14.018
		c3.316,0,6.193-2.705,6.193-6.024v-2.791C37.656,267.907,34.779,265.245,31.463,265.245z"/>
</g>
</svg>
